# xmcd CD database file
#
# Track frame offsets:
#	150
#	51782
#	155067
#	216757
#
# Disc length: 3246 seconds
#
# Revision: 2
# Processed by: cddbd v1.4b41PL1 Copyright (c) Steve Scherf et al.
# Submitted via: Feurio! 1.50.2ß - http://www.feurio.com
#
DISCID=330cac04
DTITLE=Grateful Dead - Cornell 5/8/77 Disc 3
DYEAR=1900
DGENRE=
TTITLE0=Estimated Prophet
TTITLE1=St. Stephen
TTITLE2=(Walk Me Out) Morning Dew
TTITLE3=One More Saturday Night
EXTD=
EXTT0=
EXTT1=
EXTT2=
EXTT3=
PLAYORDER=
